#tb 0: 1/1
#media_type 0: video
#codec_id 0: mpeg2video
#dimensions 0: 2x2
#sar 0: 0/1
0,         -1,          0,        1,       57, 0x80ba0ecd, S=1,        8
0,          0,          1,        1,       24, 0x4f1c0660, F=0x0, S=1,        8
0,          1,          2,        1,       24, 0x53dc06a0, F=0x0, S=1,        8
0,          2,          3,        1,       24, 0x589c06e0, F=0x0, S=1,        8
0,          3,          4,        1,       24, 0x4a700621, F=0x0, S=1,        8
0,          4,          5,        1,       24, 0x4f300661, F=0x0, S=1,        8
0,          5,          6,        1,       24, 0x53f006a1, F=0x0, S=1,        8
0,          6,          7,        1,       24, 0x58b006e1, F=0x0, S=1,        8
0,          7,          8,        1,       24, 0x4a840622, F=0x0, S=1,        8
0,          8,          9,        1,       24, 0x4f440662, F=0x0, S=1,        8
0,          9,         10,        1,       24, 0x540406a2, F=0x0, S=1,        8
0,         10,         11,        1,       24, 0x58c406e2, F=0x0, S=1,        8
0,         11,         12,        1,       24, 0x4a980623, F=0x0, S=1,        8
0,         12,         13,        1,       24, 0x4f580663, F=0x0, S=1,        8
0,         13,         14,        1,       24, 0x541806a3, F=0x0, S=1,        8
0,         14,         15,        1,       24, 0x58d806e3, F=0x0, S=1,        8
0,         15,         16,        1,       24, 0x4aac0624, F=0x0, S=1,        8
